<?xml version="1.0" encoding="utf-8"?>
<!-- Generator: Adobe Illustrator 18.1.1, SVG Export Plug-In . SVG Version: 6.00 Build 0)  -->
<svg version="1.1" id="Layer_1" xmlns="http://www.w3.org/2000/svg" xmlns:xlink="http://www.w3.org/1999/xlink" x="0px" y="0px"
	 viewBox="0 0 68 68" enable-background="new 0 0 68 68" xml:space="preserve">
<g>
	<g>
		<path fill="#F84949" d="M31.2,55h5.6v-5.6h-5.6V55z M31.2,11.7v16.6l1.4,14.1h2.8l1.4-14.1V11.7H31.2z"/>
	</g>
	<g opacity="0.11">
		<circle fill="#F84949" cx="34" cy="34" r="34"/>
	</g>
	<g>
		<path fill="#F84949" d="M34,1c18.2,0,33,14.8,33,33S52.2,67,34,67S1,52.2,1,34S15.8,1,34,1 M34,0C15.2,0,0,15.2,0,34
			s15.2,34,34,34s34-15.2,34-34S52.8,0,34,0L34,0z"/>
	</g>
</g>
</svg>
