<?xml version="1.0" encoding="utf-8"?>
<!-- Generator: Adobe Illustrator 18.1.1, SVG Export Plug-In . SVG Version: 6.00 Build 0)  -->
<svg version="1.1" id="Layer_1" xmlns="http://www.w3.org/2000/svg" xmlns:xlink="http://www.w3.org/1999/xlink" x="0px" y="0px"
	 viewBox="0 0 68 68" enable-background="new 0 0 68 68" xml:space="preserve">
<g opacity="0.11">
	<circle fill="#8DB83A" cx="34" cy="34" r="34"/>
</g>
<path fill-rule="evenodd" clip-rule="evenodd" fill="#8DB83A" d="M15.9,35l2.7-2.7l13,13L28.9,48L15.9,35z"/>
<path fill-rule="evenodd" clip-rule="evenodd" fill="#8DB83A" d="M26.2,45.3l24-24l2.7,2.7l-24,24L26.2,45.3z"/>
<g>
	<path fill="#8DB83A" d="M34,1c18.2,0,33,14.8,33,33S52.2,67,34,67S1,52.2,1,34S15.8,1,34,1 M34,0C15.2,0,0,15.2,0,34s15.2,34,34,34
		s34-15.2,34-34S52.8,0,34,0L34,0z"/>
</g>
</svg>
